<?xml version="1.0" encoding="utf-8"?>
<!-- Generator: Adobe Illustrator 25.4.1, SVG Export Plug-In . SVG Version: 6.00 Build 0)  -->
<svg version="1.1" id="Flat" xmlns="http://www.w3.org/2000/svg" xmlns:xlink="http://www.w3.org/1999/xlink" x="0px" y="0px"
	 viewBox="0 0 800 800" style="enable-background:new 0 0 800 800;" xml:space="preserve">
<style type="text/css">
	.st0{fill:#516CF7;stroke:#516CF7;stroke-width:30;stroke-miterlimit:10;}
</style>
<path class="st0" d="M559.2,293.8c58.7-29.2,82.6-100.5,53.4-159.2c-20.1-40.3-61.3-65.8-106.3-65.8H293.8
	c-65.6,0-118.7,53.1-118.8,118.7c0,45.1,25.5,86.2,65.8,106.3c-58.7,29.2-82.6,100.4-53.4,159.1c11.5,23.1,30.3,41.9,53.4,53.4
	c-58.7,29.2-82.6,100.5-53.3,159.2c29.2,58.7,100.5,82.6,159.2,53.3c40.3-20.1,65.8-61.2,65.8-106.3V472.8
	c40.2,51.8,114.7,61.2,166.5,21.1c51.8-40.2,61.2-114.7,21.1-166.5C589.2,313.2,575.2,301.7,559.2,293.8z M600,187.5
	c-0.1,51.7-42,93.7-93.7,93.7l-0.1,0l-0.1,0l-93.6,0V93.8h93.8C558,93.8,599.9,135.8,600,187.5z M433.5,306.3
	c-7.8,6.1-14.9,13.2-21,21v-21L433.5,306.3z M200,187.5c0.1-51.8,42-93.7,93.8-93.8h93.8v187.5h-93.8l-0.1,0
	C242,281.2,200.1,239.2,200,187.5z M293.8,706.2c-51.8,0-93.8-41.9-93.8-93.7c0-51.8,41.9-93.8,93.7-93.8c0.1,0,0.1,0,0.2,0l93.8,0
	v93.8C387.4,664.3,345.5,706.2,293.8,706.2z M387.5,493.7l-93.8,0c-51.8,0-93.7-42-93.7-93.8c0-51.7,41.9-93.7,93.7-93.7l0.1,0
	l93.8,0V493.7z M506.2,493.8c-51.8,0-93.7-42-93.7-93.8c0-51.7,41.9-93.6,93.6-93.7h0.1l0.1,0c51.8,0.1,93.7,42.1,93.6,93.9
	C599.9,451.8,558,493.7,506.2,493.8z"/>
</svg>
