<?xml version="1.0" encoding="utf-8"?>
<!-- Generator: Adobe Illustrator 25.4.1, SVG Export Plug-In . SVG Version: 6.00 Build 0)  -->
<svg version="1.1" id="Layer_1" xmlns="http://www.w3.org/2000/svg" xmlns:xlink="http://www.w3.org/1999/xlink" x="0px" y="0px"
	 viewBox="0 0 356 356" style="enable-background:new 0 0 356 356;" xml:space="preserve">
<style type="text/css">
	.st0{fill:#516CF7;stroke:#516CF7;stroke-width:1.5;stroke-miterlimit:10;}
</style>
<g transform="translate(1.4065934065934016 1.4065934065934016) scale(2.81 2.81)">
	<path class="st0" d="M39.2,107.8c-5.5,0-10.9-2.1-15.1-6.2c-4-4-6.3-9.4-6.3-15.1c0-5.7,2.2-11.1,6.3-15.1l16.7-16.7
		c1.6-1.6,4.1-1.6,5.7,0c1.6,1.6,1.6,4.1,0,5.7L29.7,77c-2.5,2.5-3.9,5.9-3.9,9.5s1.4,6.9,3.9,9.4c5.2,5.2,13.7,5.2,18.9,0
		l16.7-16.7c1.6-1.6,4.1-1.6,5.7,0c1.6,1.6,1.6,4.1,0,5.7l-16.7,16.7C50.1,105.7,44.6,107.8,39.2,107.8z"/>
	<path class="st0" d="M82.1,72.1c-1,0-2-0.4-2.8-1.2c-1.6-1.6-1.6-4.1,0-5.7l16.7-16.7c5.2-5.2,5.2-13.7,0-18.9
		c-2.5-2.5-5.9-3.9-9.4-3.9s-6.9,1.4-9.5,3.9L60.3,46.4c-1.6,1.6-4.1,1.6-5.7,0c-1.6-1.6-1.6-4.1,0-5.7L71.3,24
		c4-4,9.4-6.3,15.1-6.3c5.7,0,11.1,2.2,15.1,6.3c8.3,8.3,8.3,21.9,0,30.2L84.9,70.9C84.1,71.7,83.1,72.1,82.1,72.1z"/>
	<path class="st0" d="M43.1,86.5c-1,0-2-0.4-2.8-1.2c-1.6-1.6-1.6-4.1,0-5.7l39.3-39.3c1.6-1.6,4.1-1.6,5.7,0c1.6,1.6,1.6,4.1,0,5.7
		L46,85.3C45.2,86.1,44.2,86.5,43.1,86.5z"/>
</g>
</svg>
